<?xml version="1.0" encoding="utf-8"?>
<!-- Generator: Adobe Illustrator 24.2.1, SVG Export Plug-In . SVG Version: 6.00 Build 0)  -->
<svg version="1.1" id="Layer_1" xmlns="http://www.w3.org/2000/svg" xmlns:xlink="http://www.w3.org/1999/xlink" x="0px" y="0px"
	 viewBox="0 0 637.4 199.7" style="enable-background:new 0 0 637.4 199.7;" xml:space="preserve">
<style type="text/css">
	.st0{fill:#990A2C;}
	.st1{fill-rule:evenodd;clip-rule:evenodd;fill:#990A2C;}
</style>
<polygon class="st0" points="397.7,198.9 397.6,179.5 365.4,179.6 365.4,161.5 397.5,161.4 397.5,142 365.3,142.1 364.9,19.8 
	397,19.6 397,0.3 345.5,0.5 346.2,199.1 "/>
<polygon class="st0" points="488.5,19.4 488.4,0 422.7,0.2 422.7,19.6 445.9,19.5 446.6,198.7 465.9,198.6 465.3,19.5 "/>
<path class="st0" d="M296.2,82.3c-0.1-21.1-9.1-37-22.5-49.1l0.4,104.6C289.5,118.9,296.3,102.2,296.2,82.3 M320.5,199.2
	c-20.6-1.7-35.8-11.2-46.3-30.2l0.1,30.4l-19.3,0.1L254.2,0.7c39.3,9.8,61.2,52.9,61.3,80.9c0.1,27.9-6.4,43.2-31,70.7
	c8.1,15.7,19.4,24.1,35.8,27.5L320.5,199.2z"/>
<path class="st0" d="M228.6,81.9C226.4,54.7,208,11,167.3,1l0.7,198.7l19.4-0.1l-0.1-34.8C187.2,164.9,232.4,128,228.6,81.9
	 M209.2,82.5c0.1,20-6.7,36.7-22.1,55.5l-0.4-104.5C200.2,45.6,209.1,61.5,209.2,82.5"/>
<polygon class="st1" points="57,43.5 72.3,88.1 113.9,88 80.7,111.5 93.8,152 57.3,128.5 21.2,152 34,111.6 0,88.4 41.9,88.2 "/>
<polygon class="st1" points="580.5,40.4 595.9,85 637.4,84.8 604.3,108.4 617.3,148.9 580.8,125.4 544.7,148.9 557.5,108.5 
	523.5,85.3 565.4,85.1 "/>
</svg>
